<?xml version="1.0" encoding="utf-8"?>
<!-- Generator: Adobe Illustrator 26.3.1, SVG Export Plug-In . SVG Version: 6.00 Build 0)  -->
<svg version="1.1" id="Camada_1" xmlns="http://www.w3.org/2000/svg" xmlns:xlink="http://www.w3.org/1999/xlink" x="0px" y="0px"
	 viewBox="0 0 576 512" style="enable-background:new 0 0 576 512;" xml:space="preserve">
<style type="text/css">
	.st0{fill:#FF7900;}
</style>
<path class="st0" d="M480,112c-44.2,0-80,35.8-80,80c0,32.8,19.8,61,48.1,73.3V344c0,57.2-50.2,104-112,104
	c-60,0-109.3-44.1-111.9-99.2c71.9-15,127.8-79.5,127.8-157.7V36.6c0-11.4-8.1-21.4-19.3-23.5L269.8,0.5c-13-2.6-25.5,5.8-28.2,18.8
	L238.4,35c-2.6,13,5.8,25.6,18.8,28.2l30.7,6.1v121.4c0,52.9-42.1,96.6-95.1,97.1c-53.4,0.5-96.8-42.6-96.8-95.9L95.9,69.4l30.7-6.1
	c13-2.5,21.4-15.2,18.8-28.2l-3.1-15.7c-2.5-13-15.2-21.4-28.2-18.8L51.3,13C40.2,15.2,32,25.1,32,36.6V192
	c0,77.2,55.1,142,128.1,156.8C162.7,439.3,240.6,512,336,512c97,0,176-75.4,176-168v-78.7c28.2-12.4,48-40.5,48-73.2
	C560,147.8,524.2,112,480,112z M480,216c-13.2,0-24-10.8-24-24s10.7-24,24-24s24,10.7,24,24S493.3,216,480,216z"/>
</svg>
