<?xml version="1.0" encoding="UTF-8" standalone="no"?><!DOCTYPE svg PUBLIC "-//W3C//DTD SVG 1.1//EN" "http://www.w3.org/Graphics/SVG/1.1/DTD/svg11.dtd"><svg width="100%" height="100%" viewBox="0 0 1225 306" version="1.1" xmlns="http://www.w3.org/2000/svg" xmlns:xlink="http://www.w3.org/1999/xlink" xml:space="preserve" xmlns:serif="http://www.serif.com/" style="fill-rule:evenodd;clip-rule:evenodd;stroke-linejoin:round;stroke-miterlimit:2;"><g><path d="M269.475,305.936c34.044,-0 42.845,-21.977 47.242,-21.977c3.997,-0 9.593,21.977 27.979,21.977c23.982,-0 29.578,-23.576 29.578,-95.189c0,-87.181 -21.984,-109.561 -81.97,-109.561c-42.813,-0 -69.992,14.787 -69.992,36.368c0,18.385 8.393,25.188 21.583,25.188c11.99,0 28.782,-3.606 43.202,-3.606c19.627,-0 20.027,12.421 20.027,26.045c0,9.194 -13.618,-6.411 -48.84,-6.411c-36.372,-0 -51.16,26.387 -51.16,63.196c0,34.8 17.586,63.97 62.351,63.97Zm0.799,-68.776c0,-16.42 6.008,-19.624 13.619,-19.624c8.011,-0 22.031,7.209 22.031,19.624c0,12.015 -12.017,20.826 -22.031,20.826c-7.611,-0 -13.619,-4.005 -13.619,-20.826Z" style="fill:#fff;fill-rule:nonzero;"/><path d="M431.498,303.536c34.376,-0 34.376,-24.8 34.376,-109.2c0,-24.8 0,-30.4 5.6,-30.4c8.4,0.01 18.8,15.2 39.2,15.2c16.8,-0 26.4,-11.592 26.4,-37.176c0,-29.98 -13.2,-39.574 -29.6,-39.574c-26,-0 -39.2,30 -44.398,30c-3.997,-0 -2.398,-28.8 -30.779,-28.8c-33.976,-0 -37.973,22.4 -37.973,90.75c0,83.6 6.396,109.2 37.174,109.2Z" style="fill:#fff;fill-rule:nonzero;"/><path d="M639.101,305.936c48.798,-0 75.575,-20.383 75.575,-50.357c0,-18.812 -7.194,-28.428 -17.984,-28.428c-14.788,-0 -22.781,20.835 -51.985,20.835c-22.427,-0 -26.833,-23.239 -26.833,-28.849c0,-2.398 1.202,-3.995 3.605,-3.995c5.606,-0 15.218,3.194 40.442,3.194c47.959,-0 55.153,-31.555 55.153,-52.785c0,-39.588 -27.177,-64.365 -77.974,-64.365c-44.81,-0 -93.176,21.58 -93.176,103.574c0,54.416 27.581,101.176 93.177,101.176Zm-21.627,-126.365c0,-13.62 7.209,-24.035 20.826,-24.035c17.621,-0 20.424,12.819 20.424,24.035c0,8.412 -2.803,10.415 -17.621,10.415c-16.02,-0 -23.629,-2.003 -23.629,-10.415Z" style="fill:#fff;fill-rule:nonzero;"/><path d="M993.875,305.936c34.044,-0 42.845,-21.977 47.242,-21.977c3.997,-0 9.593,21.977 27.979,21.977c23.982,-0 29.578,-23.576 29.578,-95.189c0,-87.181 -21.984,-109.561 -81.97,-109.561c-42.813,-0 -69.992,14.787 -69.992,36.368c0,18.385 8.393,25.188 21.583,25.188c11.99,0 28.782,-3.606 43.202,-3.606c19.627,-0 20.027,12.421 20.027,26.045c0,9.194 -13.618,-6.411 -48.84,-6.411c-36.372,-0 -51.16,26.387 -51.16,63.196c0,34.8 17.586,63.97 62.351,63.97Zm0.799,-68.776c0,-16.42 6.008,-19.624 13.619,-19.624c8.011,-0 22.031,7.209 22.031,19.624c0,12.015 -12.017,20.826 -22.031,20.826c-7.611,-0 -13.619,-4.005 -13.619,-20.826Z" style="fill:#fff;fill-rule:nonzero;"/><path d="M1175.48,303.536c43.191,-0 48.791,-15.6 48.791,-44.4c0,-17.953 -6.8,-21.95 -18.8,-21.95c-11.2,-0 -17.6,-6.804 -17.6,-41.226c0,-44.818 2.4,-39.624 12.8,-39.624c10.8,-0 23.2,2.801 23.2,-23.175c0,-23.575 -5.2,-23.975 -14.4,-23.975c-12.8,-0 -22.399,5.595 -22.399,-7.2c0,-28 -7.994,-35.6 -31.577,-35.6c-26.781,-0 -36.774,22.4 -36.774,127.973c0,90.777 13.59,109.177 56.759,109.177Z" style="fill:#fff;fill-rule:nonzero;"/><path d="M23.712,95.996c-10.51,-13.306 -35.603,-48.173 -17.092,-56.476c21.6,-9.688 56.364,6.585 60.528,8.608c14.843,-7.559 32.366,-11.342 52.326,-11.342c3.028,-0 5.973,0.138 8.837,0.403c7.61,-13.426 29.101,-48.057 40.953,-33.817c13.891,16.69 11.892,55.934 11.675,59.569c10.693,12.008 16.289,26.219 16.289,38.245c0,26.383 -18.373,39.084 -31.973,39.084c-14.8,-0 -23.816,-12.748 -47.608,-8.413c-30.302,5.52 -42.055,26.729 -42.055,57.142c0,17.207 11.444,57.835 43.844,57.835c18,0 31.2,-18.407 46.4,-18.407c15.2,-0 28.671,6.731 28.671,27.919c-0,24.366 -35.033,49.59 -77.833,49.59c-43.99,-0 -106.75,-26.383 -106.75,-131.574c0,-31.535 4.737,-57.661 13.788,-78.366Zm112.182,-32.784c-7.171,0.324 -8.885,5.763 -8.885,12.063c0,6.299 3.175,10.764 8.885,10.764c5.71,0 10.717,-5.125 10.345,-11.414c-0.487,-8.247 -4.641,-11.672 -10.345,-11.413Zm-67.038,15.872c-5.71,-0 -10.345,5.114 -10.345,11.414c-0,6.299 4.98,13.032 10.67,12.55c7.658,-0.65 9.047,-6.413 9.047,-12.713c-0,-6.299 -3.662,-11.251 -9.372,-11.251Zm36.343,18.572c0,-0 -13.622,5.315 -4.036,9.026c9.585,3.71 20.097,-5.993 15.15,-9.026c-4.947,-3.033 -11.114,-0 -11.114,-0Z" style="fill:#fff;"/><path d="M746.358,95.996c-10.51,-13.306 -35.603,-48.173 -17.092,-56.476c21.6,-9.688 56.364,6.585 60.528,8.608c14.843,-7.559 32.366,-11.342 52.326,-11.342c3.028,-0 5.974,0.138 8.837,0.403c7.61,-13.426 29.101,-48.057 40.953,-33.817c13.891,16.69 11.892,55.934 11.675,59.569c10.693,12.008 16.289,26.219 16.289,38.245c0,26.383 -18.373,39.084 -31.973,39.084c-14.8,-0 -23.816,-12.748 -47.608,-8.413c-30.301,5.52 -42.055,26.729 -42.055,57.142c0,17.207 11.444,57.835 43.844,57.835c18,0 31.2,-18.407 46.4,-18.407c15.2,-0 28.671,6.731 28.671,27.919c-0,24.366 -35.033,49.59 -77.833,49.59c-43.99,-0 -106.75,-26.383 -106.75,-131.574c0,-31.535 4.737,-57.661 13.788,-78.366Zm112.182,-32.784c-7.171,0.324 -8.885,5.763 -8.885,12.063c0,6.299 3.175,10.764 8.885,10.764c5.71,0 10.717,-5.125 10.345,-11.414c-0.487,-8.247 -4.641,-11.672 -10.345,-11.413Zm-67.038,15.872c-5.71,-0 -10.345,5.114 -10.345,11.414c-0,6.299 4.981,13.032 10.67,12.55c7.658,-0.65 9.047,-6.413 9.047,-12.713c-0,-6.299 -3.662,-11.251 -9.372,-11.251Zm36.344,18.572c-0,-0 -13.622,5.315 -4.037,9.026c9.585,3.71 20.097,-5.993 15.15,-9.026c-4.947,-3.033 -11.113,-0 -11.113,-0Z" style="fill:#fff;"/></g></svg>