<?xml version="1.0" encoding="utf-8"?>
<!-- Generator: Adobe Illustrator 26.3.1, SVG Export Plug-In . SVG Version: 6.00 Build 0)  -->
<svg version="1.1" id="Camada_1" xmlns="http://www.w3.org/2000/svg" xmlns:xlink="http://www.w3.org/1999/xlink" x="0px" y="0px"
	 viewBox="0 0 448 512" style="enable-background:new 0 0 448 512;" xml:space="preserve">
<style type="text/css">
	.st0{fill:#FF7900;}
</style>
<path class="st0" d="M224,304c70.8,0,128-57.2,128-128V65.9c0-13.4-8.2-25.4-20.8-30L246.5,4.1C239.3,1.4,231.6,0,224,0
	s-15.2,1.4-22.5,4.1l-84.7,31.8C104.3,40.5,96,52.5,96,65.9V176C96,246.8,153.3,304,224,304z M184,71.6c0-2.8,2.2-5,5-5h21.6V45
	c0-2.8,2.2-5,5-5h16.8c2.8,0,5,2.2,5,5v21.6H259c2.8,0,5,2.2,5,5v16.8c0,2.8-2.2,5-5,5h-21.6V115c0,2.8-2.2,5-5,5h-16.8
	c-2.8,0-5-2.2-5-5V93.4H189c-2.8,0-5-2.2-5-5V71.6z M144,160h160v16c0,44.1-35.9,80-80,80s-80-35.9-80-80V160z M327.2,312.8L224,416
	L120.8,312.8C50.9,335.1,0,400,0,477.4C0,496.5,15.5,512,34.7,512h378.6c19.1,0,34.7-15.5,34.7-34.6
	C447.1,400.1,397.1,335.1,327.2,312.8z"/>
</svg>
