<?xml version="1.0" encoding="utf-8"?>
<!-- Generator: Adobe Illustrator 26.3.1, SVG Export Plug-In . SVG Version: 6.00 Build 0)  -->
<svg version="1.1" id="Camada_1" xmlns="http://www.w3.org/2000/svg" xmlns:xlink="http://www.w3.org/1999/xlink" x="0px" y="0px"
	 viewBox="0 0 576 512" style="enable-background:new 0 0 576 512;" xml:space="preserve">
<style type="text/css">
	.st0{fill:#FF7900;}
</style>
<path class="st0" d="M324.8,172c-21.5,0-113.5,2.1-172.8,91.4V172c0-56.3-45.7-102-102-102c-18.7,0-34,15.3-34,34s15.3,34,34,34
	s34,15.3,34,34v272c0,37.5,30.5,68,68,68h187c9.4,0,17-7.6,17-16v-18c0-18.7-15.3-34-34-34h-34l136-102v153c0,9.4,7.6,17,17,17h34
	c9.4,0,17-7.6,17-17V276c-10.9,2.8-22.2,4.8-34,4.8C392.3,280.8,337.4,234,324.8,172z M492,70h-68L356,2v142.8
	c0,56.3,45.7,101,102,101s102-44.7,102-101V2L492,70z M415.5,155c-9.4,0-17-7.6-17-17s7.6-17,17-17s17,7.6,17,17S425,155,415.5,155z
	 M500.5,155c-9.4,0-17-7.6-17-17s7.6-17,17-17s17,7.6,17,17S510,155,500.5,155z"/>
</svg>
