<?xml version="1.0" encoding="utf-8"?>
<!-- Generator: Adobe Illustrator 26.3.1, SVG Export Plug-In . SVG Version: 6.00 Build 0)  -->
<svg version="1.1" id="Camada_1" xmlns="http://www.w3.org/2000/svg" xmlns:xlink="http://www.w3.org/1999/xlink" x="0px" y="0px"
	 viewBox="0 0 512 512" style="enable-background:new 0 0 512 512;" xml:space="preserve">
<style type="text/css">
	.st0{fill:#FF7900;}
</style>
<path class="st0" d="M256,0C114.6,0,0,114.6,0,256s114.6,256,256,256s256-114.6,256-256S397.4,0,256,0z M368,360
	c0,13.2-10.8,24-24,24s-24-10.7-24-24v-80H192v80c0,13.3-10.7,24-24,24s-24-10.7-24-24V152c0-13.2,10.8-24,24-24s24,10.8,24,24v80
	h128v-80c0-13.2,10.8-24,24-24s24,10.8,24,24V360z"/>
</svg>
