<?xml version="1.0" encoding="utf-8"?>
<!-- Generator: Adobe Illustrator 26.3.1, SVG Export Plug-In . SVG Version: 6.00 Build 0)  -->
<svg version="1.1" id="Camada_1" xmlns="http://www.w3.org/2000/svg" xmlns:xlink="http://www.w3.org/1999/xlink" x="0px" y="0px"
	 viewBox="0 0 512 512" style="enable-background:new 0 0 512 512;" xml:space="preserve">
<style type="text/css">
	.st0{fill:#FF7900;}
</style>
<path class="st0" d="M160,352h192V160H160V352z M448,176h48c8.8,0,16-7.2,16-16s-7.2-16-16-16h-48v-16c0-35.3-28.6-64-64-64h-16V16
	c0-8.8-7.2-16-16-16c-8.8,0-16,7.2-16,16v48h-64V16c0-8.8-7.2-16-16-16c-8.8,0-16,7.2-16,16v48h-64V16c0-8.8-7.2-16-16-16
	s-16,7.2-16,16v48h-16c-35.3,0-64,28.7-64,64v16H16c-8.8,0-16,7.2-16,16s7.2,16,16,16h48v64H16c-8.8,0-16,7.2-16,16
	c0,8.8,7.2,16,16,16h48v64H16c-8.8,0-16,7.2-16,16s7.2,16,16,16h48v16c0,35.4,28.7,64,64,64h16v48c0,8.8,7.2,16,16,16
	c8.8,0,16-7.2,16-16v-48h64v48c0,8.8,7.2,16,16,16c8.8,0,16-7.2,16-16v-48h64v48c0,8.8,7.2,16,16,16c8.8,0,16-7.2,16-16v-48h16
	c35.4,0,64-28.6,64-64v-16h48c8.8,0,16-7.2,16-16s-7.2-16-16-16h-48v-64h48c8.8,0,16-7.2,16-16s-7.2-16-16-16h-48V176z M384,368
	c0,8.8-7.2,16-16,16H144c-8.8,0-16-7.2-16-16V144c0-8.8,7.2-16,16-16h224c8.8,0,16,7.2,16,16V368z"/>
</svg>
