<?xml version="1.0" encoding="utf-8"?>
<!-- Generator: Adobe Illustrator 26.3.1, SVG Export Plug-In . SVG Version: 6.00 Build 0)  -->
<svg version="1.1" id="Camada_1" xmlns="http://www.w3.org/2000/svg" xmlns:xlink="http://www.w3.org/1999/xlink" x="0px" y="0px"
	 viewBox="0 0 512 512" style="enable-background:new 0 0 512 512;" xml:space="preserve">
<style type="text/css">
	.st0{fill:#FF7900;}
</style>
<path class="st0" d="M504.1,71l-64-64c-9.4-9.4-24.6-9.4-33.9,0s-9.4,24.6,0,33.9l15.9,15L384,94.1l-55-55c-9.4-9.4-24.6-9.4-33.9,0
	c-8.5,8.5-8.9,21.5-2,30.9L442.1,219c4.2,3.1,9,5,13.9,5c6.1,0,12.3-2.3,17-7c9.4-9.4,9.4-24.6,0-33.9l-55.1-55L456,89.9l15,15
	c4.7,4.7,10.9,7,17,7s12.3-2.3,17-7C514.3,95.6,514.3,80.4,504.1,71z M208.8,154.1l58.6,58.6c6.2,6.2,6.2,16.4,0,22.6
	c-3.2,3.1-7.3,4.7-11.4,4.7s-8.2-1.6-11.3-4.7l-58.6-58.5l-41.3,41.3l58.6,58.6c6.2,6.2,6.2,16.4,0,22.6c-3.2,3.1-7.3,4.7-11.4,4.7
	s-8.2-1.6-11.3-4.7l-58.6-58.5l-39.3,39.3c-12,12-18.8,28.3-18.8,45.3v88.7L7,471c-9.4,9.4-9.4,24.6,0,33.9c4.7,4.7,10.8,7,17,7
	s12.3-2.3,17-7l57-57h88.7c17,0,33.2-6.7,45.3-18.8l187.6-187.6L270.4,92.5L208.8,154.1z"/>
</svg>
